<svg xmlns="http://www.w3.org/2000/svg" viewBox="0 0 860 660" font-family="-apple-system, Segoe UI, Roboto, Helvetica, Arial, sans-serif">
  <defs>
    <marker id="arrow" markerWidth="10" markerHeight="10" refX="7" refY="3" orient="auto" markerUnits="strokeWidth"><path d="M0,0 L7,3 L0,6 Z" fill="#334155"/></marker>
    <marker id="arrowLoop" markerWidth="10" markerHeight="10" refX="7" refY="3" orient="auto" markerUnits="strokeWidth"><path d="M0,0 L7,3 L0,6 Z" fill="#9333ea"/></marker>
  </defs>
  <rect x="0" y="0" width="860" height="660" fill="#f8fafc" rx="16"/>
  <rect x="255" y="20" width="330" height="40" rx="20" fill="#2563eb"/>
  <text x="420" y="45" fill="#ffffff" font-size="15" font-weight="700" text-anchor="middle">Target  (EGFR / UniProt P00533)</text>
  <rect x="290" y="86"  width="260" height="46" rx="10" fill="#ffffff" stroke="#2563eb" stroke-width="2"/>
  <text x="420" y="114" fill="#1e3a8a" font-size="15" font-weight="600" text-anchor="middle">Planner</text>
  <rect x="290" y="152" width="260" height="46" rx="10" fill="#ffffff" stroke="#2563eb" stroke-width="2"/>
  <text x="420" y="180" fill="#1e3a8a" font-size="15" font-weight="600" text-anchor="middle">Target Resolver</text>
  <rect x="290" y="218" width="260" height="46" rx="10" fill="#ffffff" stroke="#2563eb" stroke-width="2"/>
  <text x="420" y="246" fill="#1e3a8a" font-size="15" font-weight="600" text-anchor="middle">Candidate Retriever</text>
  <rect x="290" y="284" width="260" height="46" rx="10" fill="#ffffff" stroke="#2563eb" stroke-width="2"/>
  <text x="420" y="312" fill="#1e3a8a" font-size="15" font-weight="600" text-anchor="middle">Property Predictor</text>
  <rect x="290" y="350" width="260" height="46" rx="10" fill="#ffffff" stroke="#2563eb" stroke-width="2"/>
  <text x="420" y="378" fill="#1e3a8a" font-size="15" font-weight="600" text-anchor="middle">Evidence Retriever</text>
  <rect x="290" y="416" width="260" height="46" rx="10" fill="#ffffff" stroke="#2563eb" stroke-width="2"/>
  <text x="420" y="444" fill="#1e3a8a" font-size="15" font-weight="600" text-anchor="middle">Safety Checker</text>
  <rect x="290" y="482" width="260" height="46" rx="10" fill="#ffffff" stroke="#2563eb" stroke-width="2"/>
  <text x="420" y="510" fill="#1e3a8a" font-size="15" font-weight="600" text-anchor="middle">Synthesizer</text>
  <rect x="270" y="560" width="300" height="44" rx="22" fill="#059669"/>
  <text x="420" y="587" fill="#ffffff" font-size="15" font-weight="700" text-anchor="middle">Cited triage report</text>
  <path d="M420,60 L420,84"   fill="none" stroke="#334155" stroke-width="2" marker-end="url(#arrow)"/>
  <path d="M420,132 L420,150" fill="none" stroke="#334155" stroke-width="2" marker-end="url(#arrow)"/>
  <path d="M420,198 L420,216" fill="none" stroke="#334155" stroke-width="2" marker-end="url(#arrow)"/>
  <path d="M420,264 L420,282" fill="none" stroke="#334155" stroke-width="2" marker-end="url(#arrow)"/>
  <path d="M420,330 L420,348" fill="none" stroke="#334155" stroke-width="2" marker-end="url(#arrow)"/>
  <path d="M420,396 L420,414" fill="none" stroke="#334155" stroke-width="2" marker-end="url(#arrow)"/>
  <path d="M420,462 L420,480" fill="none" stroke="#334155" stroke-width="2" marker-end="url(#arrow)"/>
  <path d="M420,528 L420,558" fill="none" stroke="#334155" stroke-width="2" marker-end="url(#arrow)"/>
  <line x1="550" y1="175" x2="620" y2="175" stroke="#059669" stroke-width="1.5" stroke-dasharray="4 3"/>
  <rect x="620" y="155" width="200" height="40" rx="8" fill="#ecfdf5" stroke="#059669" stroke-width="1.5"/>
  <text x="720" y="180" fill="#065f46" font-size="13" font-weight="600" text-anchor="middle">UniProt</text>
  <line x1="550" y1="241" x2="620" y2="241" stroke="#059669" stroke-width="1.5" stroke-dasharray="4 3"/>
  <rect x="620" y="221" width="200" height="40" rx="8" fill="#ecfdf5" stroke="#059669" stroke-width="1.5"/>
  <text x="720" y="246" fill="#065f46" font-size="13" font-weight="600" text-anchor="middle">ChEMBL bioactivity</text>
  <line x1="550" y1="307" x2="620" y2="307" stroke="#059669" stroke-width="1.5" stroke-dasharray="4 3"/>
  <rect x="620" y="287" width="200" height="40" rx="8" fill="#ecfdf5" stroke="#059669" stroke-width="1.5"/>
  <text x="720" y="312" fill="#065f46" font-size="13" font-weight="600" text-anchor="middle">ADMET ML models (TDC)</text>
  <line x1="550" y1="373" x2="620" y2="373" stroke="#059669" stroke-width="1.5" stroke-dasharray="4 3"/>
  <rect x="620" y="353" width="200" height="40" rx="8" fill="#ecfdf5" stroke="#059669" stroke-width="1.5"/>
  <text x="720" y="378" fill="#065f46" font-size="13" font-weight="600" text-anchor="middle">PubMed to pgvector</text>
  <line x1="550" y1="505" x2="620" y2="505" stroke="#059669" stroke-width="1.5" stroke-dasharray="4 3"/>
  <rect x="620" y="485" width="200" height="40" rx="8" fill="#ecfdf5" stroke="#059669" stroke-width="1.5"/>
  <text x="720" y="510" fill="#065f46" font-size="13" font-weight="600" text-anchor="middle">LLM (Groq / Claude)</text>
  <path d="M290,505 C170,505 170,373 288,373" fill="none" stroke="#9333ea" stroke-width="2" marker-end="url(#arrowLoop)"/>
  <text x="70" y="435" fill="#9333ea" font-size="12" font-weight="600">reflection /</text>
  <text x="70" y="452" fill="#9333ea" font-size="12" font-weight="600">re-retrieval</text>
</svg>
