<svg xmlns="http://www.w3.org/2000/svg" viewBox="0 0 860 660" font-family="-apple-system, Segoe UI, Roboto, Helvetica, Arial, sans-serif">
  <defs>
    <marker id="arrow" markerWidth="10" markerHeight="10" refX="7" refY="3" orient="auto" markerUnits="strokeWidth">
      <path d="M0,0 L7,3 L0,6 Z" fill="#334155"/>
    </marker>
    <marker id="arrowLoop" markerWidth="10" markerHeight="10" refX="7" refY="3" orient="auto" markerUnits="strokeWidth">
      <path d="M0,0 L7,3 L0,6 Z" fill="#9333ea"/>
    </marker>
    <style>
      .node  { fill:#ffffff; stroke:#2563eb; stroke-width:2; }
      .ntext { fill:#1e3a8a; font-size:15px; font-weight:600; text-anchor:middle; }
      .pill  { fill:#2563eb; }
      .ptext { fill:#ffffff; font-size:15px; font-weight:700; text-anchor:middle; }
      .src   { fill:#ecfdf5; stroke:#059669; stroke-width:1.5; }
      .stext { fill:#065f46; font-size:13px; font-weight:600; text-anchor:middle; }
      .edge  { stroke:#334155; stroke-width:2; fill:none; }
      .conn  { stroke:#059669; stroke-width:1.5; fill:none; stroke-dasharray:4 3; }
      .loop  { stroke:#9333ea; stroke-width:2; fill:none; }
      .ltext { fill:#9333ea; font-size:12px; font-weight:600; }
    </style>
  </defs>
  <rect x="0" y="0" width="860" height="660" fill="#f8fafc" rx="16"/>
  <rect class="pill" x="255" y="20" width="330" height="40" rx="20"/>
  <text class="ptext" x="420" y="45">Target  (EGFR / UniProt P00533)</text>
  <rect class="node" x="290" y="86"  width="260" height="46" rx="10"/>
  <text class="ntext" x="420" y="114">Planner</text>
  <rect class="node" x="290" y="152" width="260" height="46" rx="10"/>
  <text class="ntext" x="420" y="180">Target Resolver</text>
  <rect class="node" x="290" y="218" width="260" height="46" rx="10"/>
  <text class="ntext" x="420" y="246">Candidate Retriever</text>
  <rect class="node" x="290" y="284" width="260" height="46" rx="10"/>
  <text class="ntext" x="420" y="312">Property Predictor</text>
  <rect class="node" x="290" y="350" width="260" height="46" rx="10"/>
  <text class="ntext" x="420" y="378">Evidence Retriever</text>
  <rect class="node" x="290" y="416" width="260" height="46" rx="10"/>
  <text class="ntext" x="420" y="444">Safety Checker</text>
  <rect class="node" x="290" y="482" width="260" height="46" rx="10"/>
  <text class="ntext" x="420" y="510">Synthesizer</text>
  <rect class="pill" x="270" y="560" width="300" height="44" rx="22" fill="#059669"/>
  <text class="ptext" x="420" y="587">Cited triage report</text>
  <path class="edge" d="M420,60  L420,84"  marker-end="url(#arrow)"/>
  <path class="edge" d="M420,132 L420,150" marker-end="url(#arrow)"/>
  <path class="edge" d="M420,198 L420,216" marker-end="url(#arrow)"/>
  <path class="edge" d="M420,264 L420,282" marker-end="url(#arrow)"/>
  <path class="edge" d="M420,330 L420,348" marker-end="url(#arrow)"/>
  <path class="edge" d="M420,396 L420,414" marker-end="url(#arrow)"/>
  <path class="edge" d="M420,462 L420,480" marker-end="url(#arrow)"/>
  <path class="edge" d="M420,528 L420,558" marker-end="url(#arrow)"/>
  <line class="conn" x1="550" y1="175" x2="620" y2="175"/>
  <rect class="src" x="620" y="155" width="200" height="40" rx="8"/>
  <text class="stext" x="720" y="180">UniProt</text>
  <line class="conn" x1="550" y1="241" x2="620" y2="241"/>
  <rect class="src" x="620" y="221" width="200" height="40" rx="8"/>
  <text class="stext" x="720" y="246">ChEMBL bioactivity</text>
  <line class="conn" x1="550" y1="307" x2="620" y2="307"/>
  <rect class="src" x="620" y="287" width="200" height="40" rx="8"/>
  <text class="stext" x="720" y="312">ADMET ML models (TDC)</text>
  <line class="conn" x1="550" y1="373" x2="620" y2="373"/>
  <rect class="src" x="620" y="353" width="200" height="40" rx="8"/>
  <text class="stext" x="720" y="378">PubMed to pgvector</text>
  <line class="conn" x1="550" y1="505" x2="620" y2="505"/>
  <rect class="src" x="620" y="485" width="200" height="40" rx="8"/>
  <text class="stext" x="720" y="510">LLM (Groq / Claude)</text>
  <path class="loop" d="M290,505 C170,505 170,373 288,373" marker-end="url(#arrowLoop)"/>
  <text class="ltext" x="70" y="435">reflection /</text>
  <text class="ltext" x="70" y="452">re-retrieval</text>
</svg>
